<?xml version="1.0" encoding="utf-8"?>
<!-- Generator: Adobe Illustrator 16.0.4, SVG Export Plug-In . SVG Version: 6.00 Build 0)  -->
<!DOCTYPE svg PUBLIC "-//W3C//DTD SVG 1.1//EN" "http://www.w3.org/Graphics/SVG/1.1/DTD/svg11.dtd">
<svg version="1.1" id="SmugMug_Logomark__x28_Smuggy_x29_"
	 xmlns="http://www.w3.org/2000/svg" xmlns:xlink="http://www.w3.org/1999/xlink" x="0px" y="0px" width="270.079px" height="310px"
	 viewBox="0 0 270.079 310" enable-background="new 0 0 270.079 310" xml:space="preserve">
<g id="Smuggy_2_">
	<path fill-rule="evenodd" clip-rule="evenodd" d="M67.335,61.304c28.457-0.434,42.095-17.157,40.277-32.36
		C106.09,16.235,93.77,4.585,70.282,4.394C50.932,4.24,38.3,18.568,36.402,32.883C34.494,47.279,43.442,61.665,67.335,61.304z"/>
	<path fill-rule="evenodd" clip-rule="evenodd" d="M209.836,57.755c27.309-1.55,39.249-15.199,39.416-28.835
		c0.191-15.375-14.571-30.736-39.115-28.745c-19.687,1.6-31.203,15.181-32.949,28.76C175.246,44.035,185.395,59.138,209.836,57.755z
		"/>
	<path fill-rule="evenodd" clip-rule="evenodd" d="M227.25,118.498c-68.135,6.861-71.468,7.536-196.808,10.427
		C-22.415,129.15-11.16,310,101.707,310C209.188,310,338.875,107.26,227.25,118.498z M104.527,277.695
		c-98.369,0-84.925-116.95-68.377-117.618c114.327-4.605,143.58-9.332,184.348-9.332
		C261.961,150.745,183.029,277.695,104.527,277.695z"/>
</g>
</svg>
